<svg xmlns="http://www.w3.org/2000/svg" viewBox="0 0 640 640" width="640" height="640" role="img" aria-label="mobile-app-development">
  <defs>
    <linearGradient id="g58731bg" x1="0" y1="0" x2="1" y2="1">
      <stop offset="0%" stop-color="#0a0e1a"/>
      <stop offset="52%" stop-color="#1a103d"/>
      <stop offset="100%" stop-color="#0f172a"/>
    </linearGradient>
    <radialGradient id="g58731glowA" cx="50%" cy="50%" r="50%">
      <stop offset="0%" stop-color="#ec4899" stop-opacity=".55"/>
      <stop offset="100%" stop-color="#ec4899" stop-opacity="0"/>
    </radialGradient>
    <radialGradient id="g58731glowB" cx="50%" cy="50%" r="50%">
      <stop offset="0%" stop-color="#8b5cf6" stop-opacity=".45"/>
      <stop offset="100%" stop-color="#8b5cf6" stop-opacity="0"/>
    </radialGradient>
    <linearGradient id="g58731stroke" x1="0" y1="0" x2="1" y2="1">
      <stop offset="0%" stop-color="#ec4899"/>
      <stop offset="100%" stop-color="#8b5cf6"/>
    </linearGradient>
    <pattern id="g58731grid" width="34" height="34" patternUnits="userSpaceOnUse">
      <path d="M34 0H0V34" fill="none" stroke="#f1f5f9" stroke-opacity=".045" stroke-width="1"/>
    </pattern>
  </defs>
  <rect width="640" height="640" fill="url(#g58731bg)"/>
  <rect width="640" height="640" fill="url(#g58731grid)"/>
  <ellipse cx="122" cy="38" rx="269" ry="320" fill="url(#g58731glowA)"/>
  <ellipse cx="499" cy="390" rx="243" ry="294" fill="url(#g58731glowB)"/>
    <path d="M-9 111 h104 l35 -35 h94 l32 32 h188" fill="none" stroke="url(#g58731stroke)" stroke-opacity=".22" stroke-width="1.5" stroke-linecap="round"/>
  <circle cx="95" cy="111" r="3" fill="url(#g58731stroke)" fill-opacity=".5"/>
  <path d="M-10 238 h104 l35 -35 h94 l32 32 h188" fill="none" stroke="url(#g58731stroke)" stroke-opacity=".22" stroke-width="1.5" stroke-linecap="round"/>
  <circle cx="94" cy="238" r="3" fill="url(#g58731stroke)" fill-opacity=".5"/>
  <path d="M5 381 h104 l35 -35 h94 l32 32 h188" fill="none" stroke="url(#g58731stroke)" stroke-opacity=".22" stroke-width="1.5" stroke-linecap="round"/>
  <circle cx="109" cy="381" r="3" fill="url(#g58731stroke)" fill-opacity=".5"/>
  <path d="M50 494 h104 l35 -35 h94 l32 32 h188" fill="none" stroke="url(#g58731stroke)" stroke-opacity=".22" stroke-width="1.5" stroke-linecap="round"/>
  <circle cx="154" cy="494" r="3" fill="url(#g58731stroke)" fill-opacity=".5"/>
  <rect x="77" y="77" width="486" height="486" rx="45" fill="#f1f5f9" fill-opacity=".03" stroke="url(#g58731stroke)" stroke-opacity=".35" stroke-width="2"/>
  <g transform="translate(179.2,179.2) scale(2.8160)" fill="none" stroke="url(#g58731stroke)" color="url(#g58731stroke)" stroke-width="1.42" stroke-linecap="round" stroke-linejoin="round" opacity="1.0"><rect x="32" y="12" width="36" height="76" rx="8"/>
                    <path d="M44 21h12"/><circle cx="50" cy="78" r="3.4"/>
                    <path d="M40 36h20M40 46h20M40 56h13" stroke-opacity=".6"/></g>
</svg>